<svg width="164" height="20" viewBox="0 0 164 20" fill="none" xmlns="http://www.w3.org/2000/svg">
<path d="M8.264 2.7C9.752 2.7 11.04 2.948 12.128 3.444C13.232 3.94 14.08 4.644 14.672 5.556C15.264 6.468 15.56 7.548 15.56 8.796C15.56 10.028 15.264 11.108 14.672 12.036C14.08 12.948 13.232 13.652 12.128 14.148C11.04 14.628 9.752 14.868 8.264 14.868H4.88V19.5H0.992V2.7H8.264ZM8.048 11.7C9.216 11.7 10.104 11.452 10.712 10.956C11.32 10.444 11.624 9.724 11.624 8.796C11.624 7.852 11.32 7.132 10.712 6.636C10.104 6.124 9.216 5.868 8.048 5.868H4.88V11.7H8.048ZM30.6963 13.092C30.6963 13.14 30.6723 13.476 30.6243 14.1H20.8563C21.0323 14.9 21.4483 15.532 22.1043 15.996C22.7603 16.46 23.5763 16.692 24.5523 16.692C25.2243 16.692 25.8163 16.596 26.3283 16.404C26.8563 16.196 27.3443 15.876 27.7923 15.444L29.7843 17.604C28.5683 18.996 26.7923 19.692 24.4563 19.692C23.0003 19.692 21.7123 19.412 20.5923 18.852C19.4723 18.276 18.6083 17.484 18.0003 16.476C17.3923 15.468 17.0883 14.324 17.0883 13.044C17.0883 11.78 17.3843 10.644 17.9763 9.636C18.5843 8.612 19.4083 7.82 20.4483 7.26C21.5043 6.684 22.6803 6.396 23.9763 6.396C25.2403 6.396 26.3843 6.668 27.4083 7.212C28.4323 7.756 29.2323 8.54 29.8083 9.564C30.4003 10.572 30.6963 11.748 30.6963 13.092ZM24.0003 9.228C23.1523 9.228 22.4403 9.468 21.8643 9.948C21.2883 10.428 20.9363 11.084 20.8083 11.916H27.1683C27.0403 11.1 26.6883 10.452 26.1123 9.972C25.5363 9.476 24.8323 9.228 24.0003 9.228ZM36.7649 8.292C37.2129 7.668 37.8129 7.196 38.5649 6.876C39.3329 6.556 40.2129 6.396 41.2049 6.396V9.852C40.7889 9.82 40.5089 9.804 40.3649 9.804C39.2929 9.804 38.4529 10.108 37.8449 10.716C37.2369 11.308 36.9329 12.204 36.9329 13.404V19.5H33.1889V6.588H36.7649V8.292ZM47.6289 6.876H50.9409V9.756H47.7249V19.5H43.9809V9.756H41.9889V6.876H43.9809V6.3C43.9809 4.828 44.4129 3.66 45.2769 2.796C46.1569 1.932 47.3889 1.5 48.9729 1.5C49.5329 1.5 50.0609 1.564 50.5569 1.692C51.0689 1.804 51.4929 1.972 51.8289 2.196L50.8449 4.908C50.4129 4.604 49.9089 4.452 49.3329 4.452C48.1969 4.452 47.6289 5.076 47.6289 6.324V6.876ZM65.2901 13.092C65.2901 13.14 65.2661 13.476 65.2181 14.1H55.4501C55.6261 14.9 56.0421 15.532 56.6981 15.996C57.3541 16.46 58.1701 16.692 59.1461 16.692C59.8181 16.692 60.4101 16.596 60.9221 16.404C61.4501 16.196 61.9381 15.876 62.3861 15.444L64.3781 17.604C63.1621 18.996 61.3861 19.692 59.0501 19.692C57.5941 19.692 56.3061 19.412 55.1861 18.852C54.0661 18.276 53.2021 17.484 52.5941 16.476C51.9861 15.468 51.6821 14.324 51.6821 13.044C51.6821 11.78 51.9781 10.644 52.5701 9.636C53.1781 8.612 54.0021 7.82 55.0421 7.26C56.0981 6.684 57.2741 6.396 58.5701 6.396C59.8341 6.396 60.9781 6.668 62.0021 7.212C63.0261 7.756 63.8261 8.54 64.4021 9.564C64.9941 10.572 65.2901 11.748 65.2901 13.092ZM58.5941 9.228C57.7461 9.228 57.0341 9.468 56.4581 9.948C55.8821 10.428 55.5301 11.084 55.4021 11.916H61.7621C61.6341 11.1 61.2821 10.452 60.7061 9.972C60.1301 9.476 59.4261 9.228 58.5941 9.228ZM74.0227 19.692C72.6467 19.692 71.4067 19.412 70.3027 18.852C69.2147 18.276 68.3587 17.484 67.7347 16.476C67.1267 15.468 66.8227 14.324 66.8227 13.044C66.8227 11.764 67.1267 10.62 67.7347 9.612C68.3587 8.604 69.2147 7.82 70.3027 7.26C71.4067 6.684 72.6467 6.396 74.0227 6.396C75.3827 6.396 76.5667 6.684 77.5747 7.26C78.5987 7.82 79.3427 8.628 79.8067 9.684L76.9027 11.244C76.2307 10.06 75.2627 9.468 73.9987 9.468C73.0227 9.468 72.2147 9.788 71.5747 10.428C70.9347 11.068 70.6147 11.94 70.6147 13.044C70.6147 14.148 70.9347 15.02 71.5747 15.66C72.2147 16.3 73.0227 16.62 73.9987 16.62C75.2787 16.62 76.2467 16.028 76.9027 14.844L79.8067 16.428C79.3427 17.452 78.5987 18.252 77.5747 18.828C76.5667 19.404 75.3827 19.692 74.0227 19.692ZM90.4779 18.876C90.1099 19.148 89.6539 19.356 89.1099 19.5C88.5819 19.628 88.0219 19.692 87.4299 19.692C85.8939 19.692 84.7019 19.3 83.8539 18.516C83.0219 17.732 82.6059 16.58 82.6059 15.06V9.756H80.6139V6.876H82.6059V3.732H86.3499V6.876H89.5659V9.756H86.3499V15.012C86.3499 15.556 86.4859 15.98 86.7579 16.284C87.0459 16.572 87.4459 16.716 87.9579 16.716C88.5499 16.716 89.0539 16.556 89.4699 16.236L90.4779 18.876Z" fill="#E4052D"/>
<path d="M100.116 2.7C101.604 2.7 102.892 2.948 103.98 3.444C105.084 3.94 105.932 4.644 106.524 5.556C107.116 6.468 107.412 7.548 107.412 8.796C107.412 10.028 107.116 11.108 106.524 12.036C105.932 12.948 105.084 13.652 103.98 14.148C102.892 14.628 101.604 14.868 100.116 14.868H96.7316V19.5H92.8436V2.7H100.116ZM99.8996 11.7C101.068 11.7 101.956 11.452 102.564 10.956C103.172 10.444 103.476 9.724 103.476 8.796C103.476 7.852 103.172 7.132 102.564 6.636C101.956 6.124 101.068 5.868 99.8996 5.868H96.7316V11.7H99.8996ZM109.923 6.588H113.667V19.5H109.923V6.588ZM111.795 4.788C111.107 4.788 110.547 4.588 110.115 4.188C109.683 3.788 109.467 3.292 109.467 2.7C109.467 2.108 109.683 1.612 110.115 1.212C110.547 0.811999 111.107 0.611999 111.795 0.611999C112.483 0.611999 113.043 0.803999 113.475 1.188C113.907 1.572 114.123 2.052 114.123 2.628C114.123 3.252 113.907 3.772 113.475 4.188C113.043 4.588 112.483 4.788 111.795 4.788ZM125.35 19.5L122.518 15.54L119.59 19.5H115.51L120.478 12.996L115.678 6.588H119.878L122.614 10.356L125.422 6.588H129.406L124.606 12.9L129.598 19.5H125.35ZM143.665 13.092C143.665 13.14 143.641 13.476 143.593 14.1H133.825C134.001 14.9 134.417 15.532 135.073 15.996C135.729 16.46 136.545 16.692 137.521 16.692C138.193 16.692 138.785 16.596 139.297 16.404C139.825 16.196 140.313 15.876 140.761 15.444L142.753 17.604C141.537 18.996 139.761 19.692 137.425 19.692C135.969 19.692 134.681 19.412 133.561 18.852C132.441 18.276 131.577 17.484 130.969 16.476C130.361 15.468 130.057 14.324 130.057 13.044C130.057 11.78 130.353 10.644 130.945 9.636C131.553 8.612 132.377 7.82 133.417 7.26C134.473 6.684 135.649 6.396 136.945 6.396C138.209 6.396 139.353 6.668 140.377 7.212C141.401 7.756 142.201 8.54 142.777 9.564C143.369 10.572 143.665 11.748 143.665 13.092ZM136.969 9.228C136.121 9.228 135.409 9.468 134.833 9.948C134.257 10.428 133.905 11.084 133.777 11.916H140.137C140.009 11.1 139.657 10.452 139.081 9.972C138.505 9.476 137.801 9.228 136.969 9.228ZM146.158 1.692H149.902V19.5H146.158V1.692ZM157.72 19.692C156.648 19.692 155.6 19.564 154.576 19.308C153.552 19.036 152.736 18.7 152.128 18.3L153.376 15.612C153.952 15.98 154.648 16.284 155.464 16.524C156.28 16.748 157.08 16.86 157.864 16.86C159.448 16.86 160.24 16.468 160.24 15.684C160.24 15.316 160.024 15.052 159.592 14.892C159.16 14.732 158.496 14.596 157.6 14.484C156.544 14.324 155.672 14.14 154.984 13.932C154.296 13.724 153.696 13.356 153.184 12.828C152.688 12.3 152.44 11.548 152.44 10.572C152.44 9.756 152.672 9.036 153.136 8.412C153.616 7.772 154.304 7.276 155.2 6.924C156.112 6.572 157.184 6.396 158.416 6.396C159.328 6.396 160.232 6.5 161.128 6.708C162.04 6.9 162.792 7.172 163.384 7.524L162.136 10.188C161 9.548 159.76 9.228 158.416 9.228C157.616 9.228 157.016 9.34 156.616 9.564C156.216 9.788 156.016 10.076 156.016 10.428C156.016 10.828 156.232 11.108 156.664 11.268C157.096 11.428 157.784 11.58 158.728 11.724C159.784 11.9 160.648 12.092 161.32 12.3C161.992 12.492 162.576 12.852 163.072 13.38C163.568 13.908 163.816 14.644 163.816 15.588C163.816 16.388 163.576 17.1 163.096 17.724C162.616 18.348 161.912 18.836 160.984 19.188C160.072 19.524 158.984 19.692 157.72 19.692Z" fill="#1C144F"/>
</svg>
